<?xml version="1.0" encoding="UTF-8"?>
<svg version="1.1" xmlns="http://www.w3.org/2000/svg" width="167" height="35">
<path d="M0 0 C4.62 0 9.24 0 14 0 C14 1.32 14 2.64 14 4 C11.03 4 8.06 4 5 4 C5 5.65 5 7.3 5 9 C10.35755449 9.53596907 10.35755449 9.53596907 15 7.5 C17.71012269 5.46740798 19.77197608 5.52355148 23.09375 5.62890625 C25.96547476 6.18795103 27.28908181 7.71877575 29 10 C29.309375 9.34 29.61875 8.68 29.9375 8 C32.45557014 5.55823502 33.28107372 5.72857594 36.6875 5.75 C38.1259798 5.81423833 39.56416999 5.89163547 41 6 C41 7.32 41 8.64 41 10 C39.02 10 37.04 10 35 10 C35 12.31 35 14.62 35 17 C38.68738911 16.65698706 40.6362256 16.29279403 43.5625 13.9375 C46.34552207 11.72535425 47.5432931 11.60494778 51 12 C50.505 11.01 50.505 11.01 50 10 C47.69 10 45.38 10 43 10 C43 9.01 43 8.02 43 7 C49.19154676 4.69334532 49.19154676 4.69334532 52.71875 6.03125 C55 8 55 8 55.48828125 11.13671875 C55.40126953 12.89435547 55.40126953 12.89435547 55.3125 14.6875 C55.26738281 15.86699219 55.22226563 17.04648437 55.17578125 18.26171875 C55.08876953 19.61716797 55.08876953 19.61716797 55 21 C51.41694008 21.11627503 47.83436583 21.1872736 44.25 21.25 C43.23421875 21.28351562 42.2184375 21.31703125 41.171875 21.3515625 C33.60499931 21.45112665 33.60499931 21.45112665 30.296875 18.984375 C29.86890625 18.32953125 29.4409375 17.6746875 29 17 C28.505 17.66 28.01 18.32 27.5 19 C24.43969844 21.44824125 22.72669114 21.59020028 18.90625 21.390625 C15.91974312 20.77863588 14.66160366 19.49240549 13 17 C13 15.68 13 14.36 13 13 C10.36 13 7.72 13 5 13 C5 15.64 5 18.28 5 21 C3.35 21 1.7 21 0 21 C0 14.07 0 7.14 0 0 Z M19 9 C17.58422523 10.18424326 17.58422523 10.18424326 17.9375 13.5625 C17.958125 14.696875 17.97875 15.83125 18 17 C19.89179203 17.6814823 19.89179203 17.6814823 22 18 C22.66 17.34 23.32 16.68 24 16 C23.67673447 12.40320934 23.67673447 12.40320934 23 9 C21.68 9 20.36 9 19 9 Z M46 16 C46 16.66 46 17.32 46 18 C47.65 17.67 49.3 17.34 51 17 C51 16.34 51 15.68 51 15 C48.0745356 14.7763932 48.0745356 14.7763932 46 16 Z " fill="#FEFEFE" transform="translate(105,8)"/>
<path d="M0 0 C1.65 0.33 3.3 0.66 5 1 C4.67 2.65 4.34 4.3 4 6 C2.948125 6.28875 1.89625 6.5775 0.8125 6.875 C-3.69861068 8.17618951 -3.69861068 8.17618951 -8 10 C-9.23506792 13.70520376 -9.56141432 17.14807397 -9 21 C-7.41666667 23.41666667 -7.41666667 23.41666667 -5 25 C-3.824375 25.8971875 -3.824375 25.8971875 -2.625 26.8125 C1.60249837 28.72493974 4.67353951 27.49021366 8.875 25.9375 C9.57625 25.628125 10.2775 25.31875 11 25 C11 24.34 11 23.68 11 23 C7.37 22.01 3.74 21.02 0 20 C-0.33 18.68 -0.66 17.36 -1 16 C-0.34 15.34 0.32 14.68 1 14 C3.125 14.375 3.125 14.375 5 15 C5 15.66 5 16.32 5 17 C5.825 17.268125 6.65 17.53625 7.5 17.8125 C11.36915561 19.12524922 15.17994294 20.55101284 19 22 C18.505 24.475 18.505 24.475 18 27 C16.948125 27.268125 15.89625 27.53625 14.8125 27.8125 C9.84566389 29.35954731 6.90707767 30.6393835 4 35 C0.10806661 34.42341728 -2.04539841 32.5000475 -5 30 C-8.30697031 27.60532389 -8.30697031 27.60532389 -14 26 C-14 20.06 -14 14.12 -14 8 C-12.02 7.34 -10.04 6.68 -8 6 C-6.32665961 5.01120795 -4.65848177 4.01351664 -3 3 C-2.34 3 -1.68 3 -1 3 C-0.67 2.01 -0.34 1.02 0 0 Z " fill="#FEFEFE" transform="translate(14,0)"/>
<path d="M0 0 C0.99 0 1.98 0 3 0 C3 1.65 3 3.3 3 5 C4.32 5 5.64 5 7 5 C7 5.99 7 6.98 7 8 C5.68 8 4.36 8 3 8 C3.33 10.64 3.66 13.28 4 16 C4.99 16.33 5.98 16.66 7 17 C7 17.99 7 18.98 7 20 C3.625 20.1875 3.625 20.1875 0 20 C-2.13586678 16.79619983 -2.23132175 15.98060033 -2.125 12.3125 C-2.10695313 11.50425781 -2.08890625 10.69601563 -2.0703125 9.86328125 C-2.04710938 9.24839844 -2.02390625 8.63351563 -2 8 C-2.66 8 -3.32 8 -4 8 C-4 11.96 -4 15.92 -4 20 C-5.32 20 -6.64 20 -8 20 C-8.33 16.04 -8.66 12.08 -9 8 C-9.99 8.33 -10.98 8.66 -12 9 C-12.33 12.63 -12.66 16.26 -13 20 C-14.65 20 -16.3 20 -18 20 C-18 15.05 -18 10.1 -18 5 C-12.33333333 5 -6.66666667 5 -1 5 C-0.67 3.35 -0.34 1.7 0 0 Z " fill="#FEFEFE" transform="translate(97,9)"/>
<path d="M0 0 C0.87527344 -0.01417969 1.75054687 -0.02835937 2.65234375 -0.04296875 C5.0625 0.1875 5.0625 0.1875 8.0625 2.1875 C7.7325 3.1775 7.4025 4.1675 7.0625 5.1875 C3.1025 5.1875 -0.8575 5.1875 -4.9375 5.1875 C-4.958125 6.63125 -4.97875 8.075 -5 9.5625 C-5.01160156 10.37460937 -5.02320313 11.18671875 -5.03515625 12.0234375 C-5.08216334 14.23687142 -5.08216334 14.23687142 -3.9375 16.1875 C-2.04216658 16.65273063 -2.04216658 16.65273063 0.125 16.8125 C1.424375 16.93625 2.72375 17.06 4.0625 17.1875 C4.0625 16.1975 4.0625 15.2075 4.0625 14.1875 C2.7425 13.8575 1.4225 13.5275 0.0625 13.1875 C0.0625 12.1975 0.0625 11.2075 0.0625 10.1875 C2.7025 10.1875 5.3425 10.1875 8.0625 10.1875 C8.0625 13.4875 8.0625 16.7875 8.0625 20.1875 C4.1274579 22.15502105 -0.6480522 21.65172595 -4.9375 21.1875 C-7.93947464 19.38631522 -9.38916366 18.28417268 -10.9375 15.1875 C-11.49262815 10.55536507 -11.5739242 7.20577873 -9.0625 3.1875 C-5.94349193 0.25196299 -4.18995555 0.03076326 0 0 Z " fill="#FEFEFF" transform="translate(48.9375,7.8125)"/>
<path d="M0 0 C1.051875 -0.02126953 1.051875 -0.02126953 2.125 -0.04296875 C4 0.1875 4 0.1875 6 2.1875 C6.1953125 5.2265625 6.1953125 5.2265625 6.125 8.8125 C6.10695313 10.00101563 6.08890625 11.18953125 6.0703125 12.4140625 C6.04710938 13.32929688 6.02390625 14.24453125 6 15.1875 C4.20866022 15.24141993 2.41686101 15.28025571 0.625 15.3125 C-0.37273437 15.33570313 -1.37046875 15.35890625 -2.3984375 15.3828125 C-5 15.1875 -5 15.1875 -7 13.1875 C-6.875 10.6875 -6.875 10.6875 -6 8.1875 C-3.10189884 6.08887502 -1.71621139 6.1875 2 6.1875 C1.67 5.5275 1.34 4.8675 1 4.1875 C-1.31 4.1875 -3.62 4.1875 -6 4.1875 C-6 3.1975 -6 2.2075 -6 1.1875 C-3.77109005 0.07304502 -2.46944894 0.02269714 0 0 Z M-1 9.1875 C-1.66 9.8475 -2.32 10.5075 -3 11.1875 C-1.68 11.5175 -0.36 11.8475 1 12.1875 C1.33 11.1975 1.66 10.2075 2 9.1875 C1.01 9.1875 0.02 9.1875 -1 9.1875 Z " fill="#FEFEFE" transform="translate(71,13.8125)"/>
<path d="M0 0 C1.32 0 2.64 0 4 0 C4 6.93 4 13.86 4 21 C2.68 21 1.36 21 0 21 C0 14.07 0 7.14 0 0 Z " fill="#FEFEFF" transform="translate(162,8)"/>
<path d="M0 0 C1.32 0 2.64 0 4 0 C4 4.95 4 9.9 4 15 C2.68 15 1.36 15 0 15 C0 10.05 0 5.1 0 0 Z " fill="#FFFEFE" transform="translate(59,14)"/>
<path d="M0 0 C1.67542976 0.28604898 3.34385343 0.61781233 5 1 C4.67 2.32 4.34 3.64 4 5 C2.68 5.33 1.36 5.66 0 6 C-0.38218767 4.34385343 -0.71395102 2.67542976 -1 1 C-0.67 0.67 -0.34 0.34 0 0 Z " fill="#FFFEFE" transform="translate(28,8)"/>
</svg>
