<svg width="167" height="35" viewBox="0 0 167 35" fill="none" xmlns="http://www.w3.org/2000/svg">
<path d="M56.7253 18.3463L56.73 26.6117C55.6592 27.3753 54.5152 27.9364 53.2981 28.295C52.0907 28.6442 50.7955 28.8192 49.4125 28.82C47.6887 28.821 46.1255 28.5629 44.7228 28.0456C43.3298 27.5283 42.1364 26.8084 41.1424 25.8859C40.1583 24.9634 39.398 23.8618 38.8616 22.581C38.3253 21.3003 38.0567 19.9017 38.0558 18.3852C38.0549 16.8498 38.3122 15.4415 38.8276 14.1601C39.343 12.8789 40.0728 11.7764 41.017 10.8527C41.9709 9.92908 43.1245 9.21255 44.4779 8.70312C45.8314 8.19369 47.3505 7.93852 49.0354 7.93755C49.8924 7.93706 50.691 8.00255 51.4312 8.13396C52.1812 8.26542 52.8728 8.44872 53.506 8.6838C54.1489 8.9095 54.7334 9.18704 55.2595 9.51641C55.7858 9.84579 56.268 10.2082 56.7065 10.6036L55.5825 12.328C55.4073 12.6012 55.1786 12.7708 54.8961 12.8369C54.6137 12.8936 54.3069 12.8232 53.9757 12.6255C53.6542 12.4468 53.3328 12.268 53.0112 12.0892C52.6897 11.9104 52.3293 11.7552 51.93 11.6236C51.5403 11.4919 51.0971 11.3839 50.6004 11.2994C50.1134 11.2149 49.5485 11.1728 48.9057 11.1731C47.8636 11.1737 46.9191 11.3438 46.072 11.6834C45.2346 12.023 44.5191 12.5085 43.9254 13.14C43.3317 13.7714 42.8743 14.5299 42.5535 15.4155C42.2326 16.3011 42.0725 17.2903 42.0731 18.3829C42.0738 19.5509 42.2448 20.5963 42.5862 21.5192C42.9373 22.4327 43.4247 23.2095 44.0484 23.8497C44.6817 24.4804 45.4417 24.9651 46.3281 25.3037C47.2146 25.6328 48.2032 25.7971 49.2939 25.7965C50.0731 25.796 50.7693 25.7156 51.3828 25.5551C51.9963 25.3946 52.5951 25.1776 53.1793 24.9041L53.1771 21.2023L50.5184 21.2039C50.2652 21.204 50.0655 21.1382 49.9194 21.0064C49.7829 20.8652 49.7146 20.6957 49.7145 20.4979L49.7133 18.3503L56.7253 18.3463Z" fill="#1C1C1C"/>
<path d="M62.7447 14.0897L62.753 28.5861L59.1304 28.5881L59.1221 14.0918L62.7447 14.0897Z" fill="#1C1C1C"/>
<path d="M73.4699 22.3915C72.4274 22.4392 71.551 22.5292 70.84 22.6614C70.1296 22.7843 69.5598 22.9448 69.1316 23.1428C68.7029 23.3409 68.3965 23.5718 68.2113 23.8357C68.0266 24.0995 67.9343 24.3869 67.9345 24.6977C67.9349 25.3099 68.1199 25.7478 68.4903 26.0114C68.87 26.2749 69.362 26.4065 69.9657 26.4061C70.706 26.4057 71.344 26.2782 71.8794 26.0235C72.4249 25.7595 72.9553 25.3636 73.4713 24.8358L73.4699 22.3915ZM65.1978 16.1088C66.9206 14.5819 68.9946 13.8177 71.4193 13.8163C72.2963 13.8158 73.0799 13.9567 73.7717 14.2389C74.4636 14.5117 75.0481 14.8975 75.5254 15.3965C76.0032 15.886 76.3637 16.4745 76.6076 17.162C76.8608 17.8494 76.988 18.6029 76.9885 19.4224L76.9937 28.578L75.3575 28.5789C75.0166 28.5791 74.7538 28.5322 74.5689 28.4381C74.3835 28.3346 74.2373 28.1321 74.1303 27.8308L73.8082 26.7854C73.4283 27.1153 73.0588 27.4075 72.6982 27.6621C72.3381 27.9072 71.9636 28.1146 71.5736 28.2844C71.1842 28.4541 70.7659 28.5815 70.3178 28.6666C69.8796 28.761 69.3927 28.8084 68.8571 28.8087C68.2241 28.8091 67.6397 28.7293 67.104 28.5695C66.5683 28.4003 66.1055 28.1509 65.7158 27.8215C65.3261 27.492 65.0237 27.0824 64.8093 26.5928C64.5949 26.1031 64.4872 25.5333 64.4868 24.8833C64.4866 24.516 64.5495 24.1533 64.676 23.7953C64.8025 23.4279 65.007 23.0793 65.289 22.7494C65.581 22.4196 65.956 22.1085 66.4134 21.8163C66.8709 21.524 67.4307 21.2694 68.0929 21.0523C68.7651 20.8353 69.5441 20.6606 70.4299 20.5282C71.3162 20.3864 72.3288 20.3011 73.4686 20.2722L73.4682 19.4244C73.4676 18.4542 73.2525 17.7384 72.8239 17.2772C72.3954 16.8064 71.7766 16.5713 70.9682 16.5718C70.3839 16.5721 69.897 16.6383 69.5075 16.7704C69.128 16.9025 68.7917 17.0534 68.4996 17.2231C68.2076 17.3834 67.9398 17.5296 67.6964 17.6616C67.463 17.7936 67.2002 17.8597 66.908 17.8598C66.6546 17.86 66.4404 17.7989 66.265 17.6766C66.0895 17.5448 65.9483 17.3941 65.8409 17.2247L65.1978 16.1088Z" fill="#1C1C1C"/>
<path d="M82.8832 15.8584C83.1851 15.5662 83.5015 15.2975 83.8323 15.0525C84.173 14.7979 84.5286 14.5858 84.8987 14.416C85.2782 14.2369 85.682 14.1001 86.1108 14.0056C86.539 13.9018 87.0066 13.8497 87.5129 13.8494C88.3313 13.8489 89.0568 13.9851 89.6899 14.2579C90.3231 14.5212 90.8495 14.8978 91.2681 15.3873C91.6972 15.8674 92.0191 16.4466 92.2336 17.1246C92.4581 17.7933 92.5703 18.5326 92.5707 19.3427L92.576 28.5689L88.9677 28.571L88.9625 19.3447C88.9619 18.4593 88.7524 17.7766 88.3332 17.2964C87.9141 16.8068 87.276 16.5623 86.4188 16.5628C85.7958 16.5632 85.2115 16.7001 84.6661 16.9735C84.1212 17.247 83.6052 17.6194 83.1185 18.0906L83.1245 28.5743L79.5163 28.5764L79.5079 14.0801L81.7135 14.0788C82.1811 14.0785 82.4878 14.2903 82.6341 14.7141L82.8832 15.8584Z" fill="#1C1C1C"/>
<path d="M99.9277 28.7911C98.6224 28.7918 97.6196 28.4391 96.9176 27.7331C96.226 27.0176 95.8796 26.0335 95.8789 24.7808L95.8743 16.6848L94.3404 16.6857C94.1457 16.6858 93.9796 16.6247 93.8434 16.5023C93.7072 16.38 93.6385 16.1963 93.6384 15.9514L93.6376 14.5668L96.0482 14.1839L96.8052 10.2273C96.8537 10.0389 96.9466 9.89286 97.0827 9.78918C97.2187 9.68549 97.3941 9.63359 97.6088 9.63346L99.4785 9.63239L99.4811 14.196L103.484 14.1937L103.485 16.6805L99.4826 16.6827L99.4871 24.5385C99.4873 24.9906 99.5993 25.3438 99.8235 25.598C100.057 25.8522 100.374 25.9791 100.773 25.9789C100.997 25.9788 101.182 25.9551 101.328 25.9079C101.484 25.8513 101.616 25.7947 101.723 25.7382C101.839 25.6816 101.942 25.6297 102.03 25.5826C102.117 25.526 102.204 25.4977 102.292 25.4977C102.399 25.4976 102.487 25.5258 102.555 25.5823C102.623 25.6293 102.697 25.7047 102.775 25.8082L103.857 27.5031C103.331 27.9273 102.727 28.2479 102.046 28.4649C101.364 28.6819 100.658 28.7907 99.9277 28.7911Z" fill="#1C1C1C"/>
<path d="M109.43 11.1527L109.433 17.1999L117.351 17.1954L117.353 20.2331L109.435 20.2377L109.44 28.5596L105.495 28.5619L105.483 8.13135L118.807 8.12371L118.808 11.1473L109.43 11.1527Z" fill="#1C1C1C"/>
<path d="M125.909 13.8278C127.019 13.8271 128.028 14.0008 128.934 14.3488C129.849 14.6968 130.628 15.1909 131.272 15.831C131.924 16.4712 132.427 17.2527 132.778 18.1756C133.129 19.0984 133.305 20.1297 133.306 21.2695C133.306 22.4187 133.131 23.4549 132.781 24.3782C132.431 25.3015 131.93 26.0883 131.278 26.7386C130.635 27.3889 129.857 27.8886 128.942 28.2376C128.036 28.5866 127.028 28.7615 125.918 28.7621C124.798 28.7627 123.78 28.5891 122.864 28.2411C121.949 27.8931 121.165 27.3943 120.512 26.7448C119.868 26.0952 119.366 25.309 119.005 24.3861C118.655 23.4632 118.479 22.4272 118.478 21.278C118.477 20.1382 118.652 19.1067 119.002 18.1835C119.361 17.2602 119.863 16.4781 120.506 15.8372C121.158 15.1963 121.941 14.7013 122.856 14.3523C123.772 14.0032 124.789 13.8284 125.909 13.8278ZM125.916 26.0776C127.163 26.0769 128.083 25.6713 128.677 24.8609C129.28 24.0505 129.581 22.8635 129.58 21.2999C129.579 19.7363 129.277 18.5449 128.673 17.7258C128.078 16.9066 127.158 16.4974 125.911 16.4981C124.645 16.4988 123.705 16.9139 123.092 17.7431C122.489 18.5629 122.188 19.7499 122.189 21.3041C122.189 22.8583 122.492 24.045 123.096 24.8641C123.71 25.6738 124.65 26.0783 125.916 26.0776Z" fill="#1C1C1C"/>
<path d="M145.916 17.1082C145.81 17.2401 145.702 17.3438 145.595 17.4192C145.498 17.4946 145.352 17.5324 145.157 17.5325C144.972 17.5326 144.792 17.4809 144.616 17.3774C144.441 17.2644 144.231 17.1421 143.988 17.0104C143.744 16.8692 143.452 16.747 143.111 16.6435C142.78 16.5307 142.366 16.4744 141.869 16.4747C141.236 16.4751 140.681 16.5884 140.204 16.8147C139.727 17.0316 139.328 17.3475 139.007 17.7621C138.695 18.1767 138.462 18.6808 138.306 19.2743C138.151 19.8584 138.074 20.5225 138.074 21.2666C138.074 22.039 138.158 22.7265 138.324 23.3293C138.499 23.9321 138.748 24.4405 139.069 24.8548C139.391 25.2597 139.781 25.5703 140.238 25.7866C140.696 25.9936 141.213 26.0969 141.787 26.0966C142.362 26.0963 142.824 26.0301 143.175 25.898C143.535 25.7565 143.837 25.6056 144.081 25.4453C144.324 25.2757 144.533 25.1248 144.708 24.9928C144.893 24.8515 145.098 24.7807 145.322 24.7806C145.614 24.7804 145.833 24.8886 145.979 25.1052L147.017 26.3762C146.618 26.8285 146.185 27.2103 145.718 27.5213C145.251 27.8231 144.764 28.0683 144.257 28.2569C143.761 28.4362 143.245 28.5636 142.709 28.6393C142.183 28.715 141.657 28.7529 141.132 28.7532C140.206 28.7537 139.334 28.5894 138.516 28.2602C137.698 27.9216 136.982 27.4322 136.368 26.792C135.754 26.1518 135.267 25.3704 134.906 24.4474C134.554 23.5151 134.379 22.4555 134.378 21.2687C134.378 20.2043 134.533 19.2199 134.844 18.3155C135.165 17.4016 135.632 16.6148 136.245 15.9551C136.858 15.286 137.617 14.7628 138.523 14.3855C139.428 14.0082 140.47 13.8193 141.649 13.8186C142.769 13.8179 143.748 13.9916 144.586 14.3396C145.433 14.6877 146.193 15.1865 146.865 15.836L145.916 17.1082Z" fill="#1C1C1C"/>
<path d="M156.318 22.3441C155.276 22.3918 154.4 22.4818 153.689 22.6141C152.978 22.7369 152.408 22.8974 151.98 23.0955C151.552 23.2935 151.245 23.5245 151.06 23.7883C150.875 24.0521 150.783 24.3395 150.783 24.6503C150.783 25.2626 150.969 25.7005 151.339 25.964C151.719 26.2275 152.211 26.3591 152.814 26.3588C153.555 26.3583 154.193 26.2308 154.728 25.9762C155.273 25.7121 155.804 25.3162 156.319 24.7885L156.318 22.3441ZM148.046 16.0615C149.769 14.5346 151.843 13.7704 154.268 13.769C155.144 13.7685 155.929 13.9093 156.62 14.1915C157.312 14.4643 157.897 14.8501 158.374 15.3491C158.851 15.8386 159.212 16.4271 159.456 17.1146C159.709 17.802 159.837 18.5556 159.837 19.375L159.842 28.5306L158.206 28.5316C157.865 28.5317 157.602 28.4848 157.418 28.3907C157.232 28.2872 157.086 28.0848 156.979 27.7834L156.657 26.7381C156.277 27.068 155.907 27.3601 155.547 27.6147C155.187 27.8598 154.812 28.0673 154.422 28.237C154.033 28.4068 153.614 28.5342 153.166 28.6192C152.728 28.7137 152.241 28.761 151.706 28.7613C151.073 28.7617 150.488 28.682 149.953 28.5221C149.417 28.3529 148.954 28.1036 148.564 27.7741C148.175 27.4447 147.872 27.0351 147.658 26.5454C147.443 26.0557 147.336 25.4859 147.335 24.836C147.335 24.4686 147.398 24.1059 147.525 23.748C147.651 23.3805 147.856 23.0319 148.138 22.7021C148.43 22.3722 148.805 22.0611 149.262 21.7689C149.719 21.4766 150.279 21.222 150.942 21.0049C151.613 20.7879 152.392 20.6132 153.279 20.4808C154.165 20.339 155.177 20.2537 156.317 20.2248L156.316 19.377C156.316 18.4068 156.101 17.6911 155.673 17.2298C155.243 16.7591 154.625 16.524 153.817 16.5244C153.233 16.5248 152.746 16.5909 152.356 16.7231C151.976 16.8552 151.64 17.0061 151.348 17.1758C151.056 17.3361 150.788 17.4822 150.545 17.6142C150.312 17.7462 150.048 17.8123 149.756 17.8125C149.503 17.8126 149.289 17.7515 149.114 17.6292C148.938 17.4974 148.797 17.3468 148.689 17.1773L148.046 16.0615Z" fill="#1C1C1C"/>
<path d="M166.005 8.09656L166.016 28.5271L162.408 28.5292L162.396 8.09863L166.005 8.09656Z" fill="#1C1C1C"/>
<path d="M16.2616 5.33275C17.7581 5.33189 18.9707 4.15664 18.9698 2.70775C18.969 1.25885 17.7551 0.0849914 16.2586 0.0858492C14.762 0.086707 13.5495 1.26196 13.5503 2.71085C13.5512 4.15975 14.765 5.33361 16.2616 5.33275Z" fill="#0FB5B3"/>
<path d="M16.2752 28.8388C17.7717 28.8379 18.9856 30.0118 18.9864 31.4606C18.9873 32.9096 17.7747 34.0848 16.2782 34.0857C14.7816 34.0865 13.5678 32.9127 13.5669 31.4638C13.5661 30.0149 14.7786 28.8396 16.2752 28.8388Z" fill="#0FB5B3"/>
<path fill-rule="evenodd" clip-rule="evenodd" d="M15.6296 1.54164L16.8904 3.56271L3.82713 11.2012L3.83388 22.9853L16.272 30.2391L27.256 23.7391L15.7218 18.1415L16.8148 16.0307L32.2774 23.5348L16.2812 33.0009L1.39586 24.3198L1.38758 9.86941L15.6296 1.54164Z" fill="#0FB5B3"/>
<path d="M2.71765 13.2107C4.21421 13.2098 5.42674 12.0346 5.42591 10.5857C5.42508 9.13677 4.2112 7.96292 2.71464 7.96378C1.21808 7.96464 0.00555605 9.13987 0.00638656 10.5888C0.00721704 12.0377 1.22109 13.2115 2.71765 13.2107Z" fill="#0FB5B3"/>
<path d="M2.72148 21.0815C4.21804 21.0806 5.43191 22.2544 5.43275 23.7033C5.43358 25.1522 4.22104 26.3275 2.72449 26.3283C1.22793 26.3292 0.0140529 25.1553 0.0132225 23.7064C0.012392 22.2576 1.22492 21.0823 2.72148 21.0815Z" fill="#0FB5B3"/>
<path d="M29.8191 21.0658C31.3157 21.065 32.5296 22.2388 32.5304 23.6877C32.5312 25.1366 31.3187 26.3119 29.8221 26.3127C28.3256 26.3136 27.1117 25.1397 27.1109 23.6908C27.11 22.2419 28.3226 21.0667 29.8191 21.0658Z" fill="#0FB5B3"/>
<path d="M29.8123 7.94864C31.3089 7.94778 32.5227 9.12168 32.5236 10.5706C32.5244 12.0194 31.3119 13.1947 29.8153 13.1955C28.3187 13.1964 27.1049 12.0225 27.104 10.5737C27.1032 9.12479 28.3157 7.9495 29.8123 7.94864Z" fill="#0FB5B3"/>
<path d="M16.2664 14.5146C17.7629 14.5137 18.9768 15.6875 18.9777 17.1365C18.9785 18.5854 17.7659 19.7606 16.2694 19.7615C14.7728 19.7623 13.559 18.5885 13.5581 17.1396C13.5573 15.6907 14.7698 14.5154 16.2664 14.5146Z" fill="#0FB5B3"/>
</svg>
