<svg width="83" height="27" viewBox="0 0 83 27" fill="none" xmlns="http://www.w3.org/2000/svg">
<path d="M33.6511 25.8868L25.6931 13.5917L18.8264 20.9426L22.3475 26.3191C22.4228 26.432 22.5501 26.5013 22.6879 26.5H33.3146C33.5368 26.5 33.7174 26.3229 33.7174 26.1049C33.7174 26.0266 33.6953 25.9509 33.6511 25.8868Z" fill="white"/>
<path d="M20.9741 5.97533L25.6905 13.4109L36.9123 1.16713C37.0604 1.00164 37.0461 0.748915 36.8798 0.601385C36.807 0.537241 36.7122 0.501321 36.6134 0.501321H26.1179C26.0036 0.501321 25.8932 0.55007 25.8165 0.633456L20.9741 5.97405V5.97533Z" fill="white"/>
<path d="M13.9698 13.6725L2.55177 26.4871H0.74838C0.33911 26.491 0.00389781 26.1651 0 25.761V25.7572C0 25.5699 0.0714598 25.389 0.200088 25.2517L11.2933 13.4121L3.59248 1.63534C3.37161 1.29025 3.47555 0.832264 3.82505 0.614176C3.94329 0.539769 4.07971 0.501283 4.22003 0.5H5.45564L13.9672 13.6712L13.9698 13.6738V13.6725Z" fill="#EB1D25"/>
<path d="M22.7944 13.4109L11.0516 26.2524C10.91 26.4038 10.7125 26.4923 10.5033 26.4961H3.99006L15.3184 13.779L6.74061 0.503886H14.0347C14.2894 0.503886 14.5258 0.633456 14.6623 0.84513L22.7931 13.4109H22.7944Z" fill="#EB1D25"/>
<path d="M36.4406 7.28771H40.6996C43.1877 7.28771 44.8508 8.98366 44.8508 11.2441C44.8508 13.5045 43.1877 15.2005 40.6996 15.2005H38.5896V19.6507H36.4445V7.28771H36.4406ZM42.6667 11.2441C42.6667 10.078 41.8963 9.30182 40.4307 9.30182H38.587V13.1876H40.4307C41.8989 13.1876 42.6667 12.4115 42.6667 11.2454V11.2441Z" fill="white"/>
<path d="M45.8513 7.28771H49.9673C52.4528 7.28771 54.1185 8.87847 54.1185 11.1376C54.1185 12.9914 53.1155 14.4064 51.329 14.8477L54.4615 19.6533H51.9565L48.989 14.9888H48.0054V19.6533H45.8604V7.28771H45.8513ZM51.9318 11.1376C51.9318 9.91759 51.0717 9.30053 49.6958 9.30053H47.9938V12.9721H49.6958C51.0743 12.9721 51.9318 12.355 51.9318 11.135V11.1376Z" fill="white"/>
<path d="M57.7136 12.3037H62.7223V14.3166H57.7136V17.6392H63.2602V19.652H55.5685V7.28771H63.1536V9.3031H57.7136V12.3063V12.3037Z" fill="white"/>
<path d="M68.5898 14.4923C66.7461 13.856 64.6712 12.8656 64.6712 10.5719C64.6712 8.82074 66.2472 7.07347 68.7678 7.07347C70.3542 7.10169 71.8471 7.81882 72.8475 9.03498L71.3598 10.4846C71.3598 10.4846 70.3217 9.08886 68.7678 9.08886C67.6933 9.08886 66.8527 9.74056 66.8527 10.5719C66.8527 11.6482 67.8362 11.9843 69.5552 12.6206C71.4651 13.3262 73.0632 14.1767 73.0632 16.4192C73.0632 18.6616 71.0597 19.8637 68.6976 19.8637C66.8345 19.8457 65.1077 18.8938 64.1164 17.3364L65.7275 15.9946C65.7275 15.9946 66.802 17.8483 68.695 17.8483C69.7695 17.8483 70.8791 17.4237 70.8791 16.4166C70.8791 15.4096 70.0736 15.0016 68.5885 14.4897L68.5911 14.4923H68.5898Z" fill="white"/>
<path d="M78.5214 14.4923C76.6803 13.856 74.6028 12.8656 74.6028 10.5719C74.6028 8.82074 76.1788 7.07347 78.6994 7.07347C80.2858 7.10169 81.7787 7.81882 82.7791 9.03498L81.2941 10.4846C81.2941 10.4846 80.2559 9.08886 78.6994 9.08886C77.6249 9.08886 76.7895 9.74056 76.7895 10.5719C76.7895 11.6482 77.7704 11.9843 79.492 12.6206C81.4071 13.3262 83 14.1767 83 16.4192C83 18.6616 80.9965 19.8637 78.6344 19.8637C76.7726 19.8444 75.0472 18.8926 74.0558 17.3364L75.6669 15.9946C75.6669 15.9946 76.7414 17.8483 78.6344 17.8483C79.7089 17.8483 80.8185 17.4237 80.8185 16.4166C80.8185 15.4096 80.013 15.0016 78.5253 14.4897L78.5227 14.4923H78.5214Z" fill="white"/>
</svg>
