<svg width="179" height="57" viewBox="0 0 179 57" fill="none" xmlns="http://www.w3.org/2000/svg">
<g clip-path="url(#clip0_59900_3672)">
<path d="M23.8653 20.605C21.6183 20.5646 19.6828 21.337 18.057 22.9224C16.4276 24.5077 15.6358 26.394 15.6763 28.5776C15.6358 30.7595 16.4241 32.651 18.0411 34.247C19.6564 35.8446 21.5884 36.6224 23.8336 36.5801C26.0789 36.6206 28.0249 35.8446 29.6736 34.247C31.3206 32.651 32.123 30.7613 32.0843 28.5776C32.1247 26.394 31.3276 24.5095 29.6895 22.9224C28.0513 21.337 26.1088 20.5646 23.8653 20.605ZM26.6912 31.5742C25.9398 32.3572 24.9967 32.7496 23.8653 32.7496C22.7339 32.7496 21.7644 32.3572 21.0219 31.5742C20.2793 30.7912 19.9098 29.804 19.9098 28.6075C19.9098 27.411 20.2793 26.3887 21.0219 25.5952C21.7644 24.8034 22.711 24.4057 23.8653 24.4057C25.0196 24.4057 25.9398 24.8069 26.6912 25.6092C27.4425 26.4134 27.8208 27.411 27.8208 28.6058C27.8208 29.8005 27.4443 30.7894 26.6912 31.5724V31.5742Z" fill="#202049"/>
<path d="M44.6562 29.8444C44.6562 30.7084 44.3887 31.414 43.8538 31.9594C43.3171 32.5067 42.638 32.7776 41.8145 32.7776C40.991 32.7776 40.2749 32.5102 39.7294 31.9753C39.1822 31.4404 38.9094 30.7295 38.9094 29.8444V20.9463H34.7393V29.5048C34.7393 31.6269 35.4026 33.3407 36.7311 34.648C38.0613 35.9572 39.754 36.61 41.8145 36.61C43.8749 36.61 45.5061 35.9519 46.8345 34.6322C48.163 33.3161 48.8281 31.6058 48.8281 29.5048V20.9463H44.6562V29.8444Z" fill="#202049"/>
<path d="M58.9371 27.0631L57.4556 26.4455C56.838 26.1991 56.4157 25.9827 56.1887 25.7962C55.9617 25.6114 55.8491 25.3757 55.8491 25.0853C55.8491 24.3657 56.3946 24.005 57.4855 24.005C58.7418 24.005 59.8855 24.4888 60.9149 25.4566L63.0158 22.8911C61.6152 21.3674 59.7835 20.6055 57.5172 20.6055C55.828 20.6055 54.4696 21.0119 53.4385 21.8266C52.4091 22.6395 51.8936 23.7569 51.8936 25.1786C51.8936 26.2713 52.2244 27.1722 52.8825 27.8813C53.5423 28.5939 54.6016 29.2467 56.0638 29.845L57.7002 30.5242C58.3178 30.7916 58.7348 31.0133 58.9512 31.1893C59.1676 31.3652 59.275 31.6063 59.275 31.916C59.275 32.3277 59.0937 32.6427 58.7348 32.8591C58.3741 33.0738 57.906 33.1829 57.3289 33.1829C55.784 33.1829 54.3517 32.4931 53.0338 31.1136L50.9329 33.6474C52.4162 35.6251 54.5277 36.6123 57.2673 36.6123C58.997 36.6123 60.4169 36.1812 61.5307 35.3155C62.6621 34.4497 63.2287 33.255 63.2287 31.7312C63.2287 30.6403 62.8944 29.7447 62.2258 29.0426C61.5554 28.344 60.4592 27.6824 58.9336 27.0648L58.9371 27.0631Z" fill="#202049"/>
<path d="M73.2652 20.605C71.0183 20.5646 69.0827 21.337 67.4569 22.9224C65.8275 24.5077 65.0357 26.394 65.0762 28.5776C65.0357 30.7595 65.824 32.651 67.441 34.247C69.0563 35.8446 70.9883 36.6224 73.2335 36.5801C75.4788 36.6206 77.4248 35.8446 79.0736 34.247C80.7205 32.651 81.5229 30.7613 81.4842 28.5776C81.5246 26.394 80.7275 24.5095 79.0894 22.9224C77.4512 21.337 75.5087 20.5646 73.2652 20.605ZM76.0911 31.5742C75.3397 32.3572 74.3966 32.7496 73.2652 32.7496C72.1338 32.7496 71.1643 32.3572 70.4218 31.5742C69.6792 30.7912 69.3097 29.804 69.3097 28.6075C69.3097 27.411 69.6792 26.3887 70.4218 25.5952C71.1643 24.8034 72.1109 24.4057 73.2652 24.4057C74.4195 24.4057 75.3397 24.8069 76.0911 25.6092C76.8424 26.4134 77.2207 27.411 77.2207 28.6058C77.2207 29.8005 76.8442 30.7894 76.0911 31.5724V31.5742Z" fill="#202049"/>
<path d="M94.0568 29.8444C94.0568 30.7084 93.7894 31.414 93.2544 31.9594C92.7178 32.5067 92.0386 32.7776 91.2151 32.7776C90.3916 32.7776 89.6755 32.5102 89.13 31.9753C88.5828 31.4404 88.3101 30.7295 88.3101 29.8444V20.9463H84.1399V29.5048C84.1399 31.6269 84.8033 33.3407 86.1317 34.648C87.462 35.9572 89.1547 36.61 91.2151 36.61C93.2756 36.61 94.9067 35.9519 96.2352 34.6322C97.5636 33.3161 98.2288 31.6058 98.2288 29.5048V20.9463H94.0568V29.8444Z" fill="#202049"/>
<path d="M105.677 22.7696V20.9467H101.846V36.2408H106.018V28.6096C106.018 27.3128 106.384 26.3239 107.115 25.6447C107.847 24.9638 108.85 24.6259 110.127 24.6259H111.241V20.9484C110.85 20.8253 110.394 20.7637 109.881 20.7637C108.149 20.7637 106.749 21.4323 105.679 22.7731L105.677 22.7696Z" fill="#202049"/>
<path d="M120.734 24.4086C122.154 24.4086 123.38 25.1511 124.411 26.6327L127.315 24.3769C125.893 21.8642 123.679 20.6079 120.672 20.6079C118.387 20.6079 116.447 21.3804 114.864 22.9253C113.277 24.4702 112.483 26.3547 112.483 28.5805C112.443 30.7835 113.234 32.6856 114.864 34.2815C116.49 35.8774 118.425 36.6552 120.672 36.6129C122.134 36.6129 123.436 36.2786 124.58 35.61C125.724 34.9413 126.634 34.0088 127.315 32.814L124.411 30.5882C123.38 32.0521 122.156 32.7824 120.734 32.7824C119.56 32.7824 118.598 32.3865 117.845 31.5929C117.093 30.7993 116.717 29.7964 116.717 28.5805C116.717 27.3647 117.093 26.3916 117.845 25.598C118.596 24.8062 119.558 24.4086 120.734 24.4086Z" fill="#202049"/>
<path d="M144.067 27.7121C144.067 25.6939 143.393 24.0047 142.043 22.6463C140.694 21.2862 138.968 20.607 136.867 20.607C134.664 20.5665 132.769 21.339 131.182 22.9243C129.596 24.5097 128.822 26.4048 128.864 28.6095C128.824 30.8353 129.621 32.7357 131.259 34.3105C132.897 35.8853 134.889 36.6525 137.238 36.6103C139.483 36.6103 141.521 35.8484 143.356 34.3246L141.626 31.4829C140.287 32.5122 138.866 33.0278 137.363 33.0278C136.249 33.0278 135.318 32.7638 134.567 32.2395C133.814 31.7151 133.316 30.9673 133.068 29.9996H143.789C143.974 29.2165 144.067 28.4547 144.067 27.7139V27.7121ZM133.068 27.0628C133.295 26.1162 133.736 25.3649 134.396 24.8071C135.056 24.251 135.829 23.973 136.714 23.973C137.599 23.973 138.417 24.2563 139.045 24.8229C139.675 25.3895 139.999 26.1355 140.018 27.0628H133.066H133.068Z" fill="#202049"/>
<path d="M14.0889 20.9463H9.91692V29.8444C9.91692 30.7084 9.64947 31.414 9.11456 31.9594C8.57789 32.5067 7.8987 32.7776 7.07522 32.7776C6.25174 32.7776 5.5356 32.5102 4.99013 31.9753C4.44291 31.4404 4.17017 30.7295 4.17017 29.8444V20.9463H0V29.5048C0 31.6269 0.663357 33.3407 1.99183 34.648C3.32206 35.9572 5.01653 36.61 7.07522 36.61C8.11337 36.61 9.06001 36.434 9.91692 36.0856V37.678C9.91692 38.542 9.64947 39.2476 9.11456 39.793C8.57789 40.3402 7.8987 40.6112 7.07522 40.6112C7.06466 40.6112 7.05411 40.6095 7.04355 40.6095V44.4418C7.05411 44.4418 7.06466 44.4418 7.07522 44.4418C9.09168 44.4418 10.7668 43.7837 12.0953 42.464C13.4237 41.1479 14.0889 39.4376 14.0889 37.3367V28.7781V20.9463Z" fill="#202049"/>
<path d="M178.466 0.5V5.16637C172.858 5.16637 167.715 7.14061 163.693 10.431C162.456 11.4428 161.326 12.5794 160.32 13.8217C159.206 15.1977 158.247 16.7021 157.466 18.3103C156.685 16.7021 155.726 15.1977 154.612 13.8217C153.605 12.5794 152.476 11.4428 151.239 10.431C147.216 7.14061 142.073 5.16637 136.465 5.16637V0.5C143.15 0.5 149.284 2.83495 154.094 6.73767C155.307 7.71951 156.435 8.80164 157.466 9.97176C158.497 8.80164 159.625 7.71951 160.839 6.73767C165.65 2.83495 171.782 0.5 178.466 0.5Z" fill="#383AD8"/>
<path d="M155.133 28.4998C155.133 32.1509 154.087 35.5556 152.277 38.4325C151.344 39.9176 150.208 41.2602 148.904 42.425C145.605 45.374 141.246 47.167 136.465 47.167V42.4989C140.716 42.4989 144.522 40.6091 147.09 37.6231C149.194 35.1738 150.466 31.9872 150.466 28.4998C150.466 25.0123 149.194 21.8257 147.09 19.3764C144.522 16.3887 140.716 14.4989 136.465 14.4989V9.83252C141.246 9.83252 145.605 11.6255 148.904 14.5746C150.208 15.7394 151.344 17.0819 152.277 18.567C154.087 21.4439 155.133 24.8487 155.133 28.4998Z" fill="#383AD8"/>
<path d="M178.466 9.83252V14.4989C174.215 14.4989 170.409 16.3887 167.844 19.3747C165.738 21.8257 164.465 25.0123 164.465 28.4998C164.465 31.9872 163.825 35.3462 162.655 38.4325C162.027 40.0953 161.242 41.6842 160.32 43.1781C159.479 44.5435 158.523 45.8315 157.466 47.028C156.435 48.1981 155.307 49.2803 154.094 50.2621C149.284 54.1648 143.15 56.4998 136.465 56.4998V51.8334C142.073 51.8334 147.216 49.8592 151.239 46.5688C152.476 45.557 153.605 44.4203 154.612 43.1781C155.726 41.8021 156.685 40.2977 157.466 38.6894C158.961 35.6119 159.799 32.1544 159.799 28.4998C159.799 24.8451 160.844 21.4439 162.655 18.567C163.587 17.0819 164.726 15.7376 166.03 14.5746C169.329 11.6238 173.685 9.83252 178.466 9.83252Z" fill="#383AD8"/>
</g>
<defs>
<clipPath id="clip0_59900_3672">
<rect width="178.466" height="56" fill="white" transform="translate(0 0.5)"/>
</clipPath>
</defs>
</svg>
